<svg id="shopping-cart" xmlns="http://www.w3.org/2000/svg" width="25.218" height="23.425" viewBox="0 0 25.218 23.425">
  <path id="Контур_1153" data-name="Контур 1153" d="M6.612,2H1V4.342H4.77L8.012,19.191h.015v.378H23.254v-.291L25.822,7.963l.4-1.278H7.624L6.956,3.626ZM23.238,9.027H8.135l1.791,8.2H21.377Z" transform="translate(-1 -2)" fill="#363741" fill-rule="evenodd"/>
  <path id="Контур_1154" data-name="Контур 1154" d="M10.342,22.685A2.342,2.342,0,1,0,8,20.342,2.342,2.342,0,0,0,10.342,22.685Z" transform="translate(0.199 0.74)" fill="#363741"/>
  <path id="Контур_1155" data-name="Контур 1155" d="M19.685,20.342A2.342,2.342,0,1,1,17.342,18,2.342,2.342,0,0,1,19.685,20.342Z" transform="translate(1.397 0.74)" fill="#363741"/>
</svg>
