<svg xmlns="http://www.w3.org/2000/svg" xmlns:xlink="http://www.w3.org/1999/xlink" width="31" height="31" viewBox="0 0 31 31">
  <defs>
    <clipPath id="clip-path">
      <rect id="Прямоугольник_1342" data-name="Прямоугольник 1342" width="31" height="31" fill="#808285"/>
    </clipPath>
  </defs>
  <g id="Сгруппировать_5699" data-name="Сгруппировать 5699" clip-path="url(#clip-path)">
    <path id="Контур_8299" data-name="Контур 8299" d="M76.657,0H50.285A2.256,2.256,0,0,0,48,2.23V28.712a2.262,2.262,0,0,0,2.285,2.237H76.657a2.266,2.266,0,0,0,2.291-2.23V2.23A2.262,2.262,0,0,0,76.657,0ZM57.182,26.373H52.588V11.6h4.594Zm-2.3-16.786a2.66,2.66,0,1,1,2.66-2.66A2.661,2.661,0,0,1,54.885,9.587ZM74.373,26.373H69.785V19.192c0-1.711-.03-3.917-2.388-3.917-2.388,0-2.75,1.868-2.75,3.8v7.3H60.065V11.6h4.4v2.019h.06a4.821,4.821,0,0,1,4.34-2.388c4.648,0,5.507,3.059,5.507,7.036Z" transform="translate(-48)" fill="#808285"/>
  </g>
</svg>
