<svg id="Сгруппировать_5917" data-name="Сгруппировать 5917" xmlns="http://www.w3.org/2000/svg" width="62.688" height="51.501" viewBox="0 0 62.688 51.501">
  <path id="Контур_6703" data-name="Контур 6703" d="M27.156-129.667c0,11.505,10.5,20.866,23.405,20.866s23.405-9.36,23.405-20.866-10.5-20.866-23.405-20.866S27.156-141.172,27.156-129.667Zm.727,0c0-11.1,10.173-20.139,22.678-20.139s22.678,9.034,22.678,20.139-10.173,20.139-22.678,20.139-22.678-9.034-22.678-20.139" transform="translate(-19.26 158.264)" fill="#ed1c24"/>
  <path id="Контур_6704" data-name="Контур 6704" d="M15.149-131.479l1.056.751-3.628,5.1-1.056-.751,3.629-5.1-8.165,1-.845-.865,4.48-4.376.905.927L10.1-129.864l.012.012,3.195-3.121.845.865-4.48,4.376-.954-.976,1.4-4.808-.012-.013-3.12,3.048m0,0-.845-.865,4.48-4.376.905.927L10.1-129.864l.012.012,3.195-3.121.845.865-4.48,4.376-.954-.976,1.4-4.808-.012-.013-3.12,3.048m-4.327-6.414-.582-1.06,5.489-3.016.624,1.135-2.7,4.368.008.016,3.914-2.15L10-136.542l-5.489,3.016-.657-1.2,2.637-4.257-.008-.016-3.823,2.1m2.482-5.558c.339-.085.948-.4.7-1.5-.134-.6-.428-1.231-1.075-1.086-.477.106-.5.591-.512,1.265l-.008.684c-.011,1.029-.02,2.022-1.365,2.323-.681.153-1.962.06-2.4-1.9a2.112,2.112,0,0,1,1.446-2.8l.272,1.213c-.265.1-.889.341-.642,1.445.108.48.415,1.013.968.889.477-.106.492-.517.495-.784l.035-1.557c.019-.871.19-1.706,1.287-1.952,1.839-.412,2.416,1.406,2.535,1.936.5,2.208-.705,2.875-1.463,3.045l-.272-1.213m-3.68-7.787v-.018l2.524-.6-.109,1.577-2.417-.963Zm3.472,1.382.158-2.283,1.315-.307.1-1.4L.1-151.1,0-149.612l6.1,2.636.094-1.361-1.258-.52M8.9-158.951l-.459,1.118L3.6-159.818,3.6-159.8,8-156.745l-.482,1.175-5.271-.939-.007.016,4.843,1.986-.459,1.119L.828-155.766l.717-1.75,4.994.834.006-.016-4.149-2.9.711-1.734L8.9-158.951m.575-2.543,1.911-2.419.89.7-2.714,3.436L4.65-163.656l.8-1.016,4.025,3.179m4.416-3.072-.959.87-4.209-4.638.959-.87,4.209,4.638m.754-8.182,1.024-.644,3.333,5.3-1.1.689-4.519-2.434-.015.009,2.377,3.781-1.023.644-3.334-5.3,1.155-.726,4.405,2.382.015-.009-2.321-3.692m7.084.045,2.46-.812,1.058,3.206-.82.27-.369-.705a2.276,2.276,0,0,1-1.539,1.509c-1.419.468-3.045-.134-3.734-2.222-.536-1.623-.148-3.451,1.84-4.1a2.466,2.466,0,0,1,3.245,1.152l-1.23.406a1.364,1.364,0,0,0-1.61-.552c-.877.289-1.487,1.17-.984,2.694.536,1.624,1.552,1.757,2.389,1.481a1.537,1.537,0,0,0,1-1.78l-1.37.452-.331-1m5.375.222c.042.346.277.99,1.4.882.61-.059,1.275-.271,1.212-.932-.046-.486-.523-.572-1.191-.665l-.677-.093c-1.02-.139-2-.272-2.136-1.644-.067-.695.186-1.954,2.188-2.146a2.112,2.112,0,0,1,2.6,1.783l-1.238.118c-.061-.274-.227-.925-1.353-.816-.49.047-1.057.285-1,.85.047.486.452.552.716.588l1.54.229c.862.128,1.67.4,1.777,1.521.18,1.875-1.7,2.222-2.237,2.274-2.252.216-2.765-1.058-2.839-1.831l1.238-.119m6.35,1.726L32.17-170.9l.711-6.223,1.287.147-.289,2.531,2.64-2.262,1.665.19-2.806,2.261,2.24,3.978-1.655-.189-1.594-2.948-.672.555-.241,2.106m6.49-2.024c.582-1.654,1.655-1.739,2.315-1.508s1.444.97.862,2.624-1.654,1.739-2.314,1.508-1.444-.97-.863-2.624Zm-1.222-.43c-.975,2.773.944,3.827,1.718,4.1s2.929.65,3.9-2.123-.944-3.827-1.718-4.1-2.929-.65-3.9,2.123m12,2.241,1.01.664-3.442,5.233-1.082-.712.341-5.122-.014-.01-2.455,3.731-1.01-.664,3.442-5.232,1.14.749-.341,5,.014.01,2.4-3.644m.221,8.594-.889-.942,3.75-3.537-1.286-1.364.806-.76,3.46,3.669-.806.76-1.286-1.363-3.75,3.537m5.36,1.315,1.467-.808.779,1.415a.782.782,0,0,1-.281,1.19c-.543.3-.907.125-1.232-.465Zm-3.684.58.613,1.112,2.147-1.183.645,1.173c.463.839.2,1.045-.551,1.457a4.231,4.231,0,0,0-1.041.731l.692,1.255.145-.08c-.042-.292.157-.4.959-.844,1.024-.564,1.059-.9,1.011-1.454a1.5,1.5,0,0,0,1.769.12,1.755,1.755,0,0,0,.61-2.564L58.107-163.5l-5.487,3.022m6.022,5.54c1.715-.36,2.345.514,2.489,1.2s-.081,1.738-1.8,2.1-2.345-.514-2.489-1.2S56.926-154.577,58.642-154.938Zm-.266-1.268c-2.877.6-2.783,2.79-2.614,3.593s.962,2.842,3.839,2.237,2.783-2.79,2.615-3.593-.963-2.842-3.839-2.238m-.906,8.724-.25,3.072-1.13-.092.356-4.364,6.243.509-.106,1.291-5.112-.417m-.953,5.323L55.5-139.25l-1.07-.375,1.447-4.132,5.911,2.071-.428,1.222-4.841-1.7m-.728,9.874,1.836-2.731-1.093-.735-1.686,2.508-.919-.618,1.686-2.509-1.347-.905-1.918,2.852-.919-.618,2.626-3.906,5.2,3.495-2.544,3.784-.919-.618m-3.663,5.129-.906.8-4.15-4.691.97-.858,4.855,1.668.013-.011-2.959-3.345.9-.8L55-129.7l-1.022.9-4.733-1.635-.013.011,2.891,3.266" transform="translate(0 177.124)" fill="#231f20"/>
  <path id="Контур_6705" data-name="Контур 6705" d="M58.226-129.455h8.257v-4.614H58.226Zm28.081,1.4H71.859l-5.376,3.166v-3.044H58.226v7.908l-4.766,2.807,4.766,3.269v8.786h8.257v-3.122l5.489,3.765H85.178l-17.27-12.7,18.4-10.837m0,0H71.859l-5.376,3.166v-3.044H58.226v7.908l-4.766,2.807,4.766,3.269v8.786h8.257v-3.122l5.489,3.765H85.178l-17.27-12.7,18.4-10.837" transform="translate(-37.916 146.587)" fill="#ed1c24"/>
</svg>
