<svg xmlns="http://www.w3.org/2000/svg" width="47" height="36" viewBox="0 0 47 36">
  <path id="Контур_6702" data-name="Контур 6702" d="M38.359-18.11s.62,2.989.759,3.616H36.392c.269-.715,1.306-3.5,1.306-3.5-.016.024.269-.731.432-1.2l.228,1.077ZM47-30.268V-1.982a3.888,3.888,0,0,1-3.917,3.857H3.917A3.888,3.888,0,0,1,0-1.982V-30.268a3.888,3.888,0,0,1,3.917-3.857H43.083A3.888,3.888,0,0,1,47-30.268ZM12.444-10.082,17.6-22.554H14.133l-3.207,8.518-.351-1.728L9.433-21.5a1.363,1.363,0,0,0-1.485-1.053H2.668l-.057.249A13.062,13.062,0,0,1,6.055-20.93L8.976-10.082Zm7.7.016L22.2-22.554h-3.28L16.874-10.066h3.272Zm11.415-4.082c.016-1.422-.865-2.507-2.75-3.4-1.151-.571-1.852-.956-1.852-1.543.016-.53.6-1.077,1.885-1.077a5.7,5.7,0,0,1,2.44.474l.294.137.449-2.7a8.259,8.259,0,0,0-2.937-.53c-3.239,0-5.516,1.7-5.532,4.13-.024,1.792,1.632,2.788,2.872,3.391,1.265.611,1.7,1.013,1.7,1.551-.016.836-1.028,1.221-1.966,1.221a6.62,6.62,0,0,1-3.076-.667l-.432-.2-.457,2.8a10.148,10.148,0,0,0,3.656.667c3.443.008,5.687-1.671,5.712-4.259Zm11.522,4.082L40.44-22.554H37.9a1.616,1.616,0,0,0-1.714,1.037L31.317-10.066H34.76s.563-1.543.685-1.872h4.21c.1.442.392,1.872.392,1.872Z" transform="translate(0 34.125)" fill="#1434cb"/>
</svg>
