<svg xmlns="http://www.w3.org/2000/svg" width="209.75" height="47.539" viewBox="0 0 209.75 47.539">
  <g id="Сгруппировать_5913" data-name="Сгруппировать 5913" transform="translate(-367 -53.461)">
    <g id="norskfolkehjelp-logo" transform="translate(366.913 53.382)">
      <path id="Контур_6673" data-name="Контур 6673" d="M1.458,23.327A21.863,21.863,0,1,1,7.852,38.809,21.861,21.861,0,0,1,1.458,23.327Z" fill="#fff"/>
      <path id="Контур_6674" data-name="Контур 6674" d="M23.287,46.618a23.28,23.28,0,1,1,23.2-23.258,23.2,23.2,0,0,1-23.2,23.258Zm0-45.174A21.916,21.916,0,1,0,45.137,23.36,21.883,21.883,0,0,0,23.287,1.444Z" fill="#32a060"/>
      <path id="Контур_6675" data-name="Контур 6675" d="M36.806,32a.1.1,0,0,0,0-.142l-.348-1.09-.642,1.156c-.2.349-.6.1-.424-.24,0,0,.827-1.626,1.088-2.182L38,30.2c-.065.218-.185.393-.293.73l.217.383a.153.153,0,0,1,0,.12l-.51,1.09-1.643.295c-.316.11-.37-.49-.055-.578L36.806,32Z" fill="#00ab4e"/>
      <path id="Контур_6676" data-name="Контур 6676" d="M35.707,32.938c-.163,0-.271-.13-.293-.316a.437.437,0,0,1,.141-.4.315.315,0,0,1-.26-.153.405.405,0,0,1,0-.4s.837-1.626,1.087-2.182v-.11l1.718.786v.088a.832.832,0,0,1-.12.294,2.942,2.942,0,0,0-.173.437l.206.294a.24.24,0,0,1,0,.218l-.576,1.091-1.686.36h-.044Zm.762-2.4.424,1.287s.065.142,0,.23a7.1,7.1,0,0,1-1.142.294c-.24.066-.152.164-.141.251s0,.13.1.13v-.021l1.567-.327.478-1.026-.206-.4a2.228,2.228,0,0,1,.174-.546l.087-.185-1.35-.611c-.26.654-.989,2.073-1.021,2.182a.208.208,0,0,0,0,.2c0,.087.174.066.239-.065l.761-1.353.033-.033Zm0,.5-.533.96-.1.12.99-.218h-.066l-.271-.851-.022-.011Z" fill="#231f20"/>
      <path id="Контур_6677" data-name="Контур 6677" d="M9.5,32a.1.1,0,0,1,0-.142l.348-1.09.641,1.156c.2.349.6.1.425-.24,0,0-.838-1.637-1.088-2.28L8.3,30.091c.109.262.218.545.337.8l-.206.382a.11.11,0,0,0,0,.12l.5,1.091,1.588.338c.326.11.38-.49.054-.578Z" fill="#32a060"/>
      <path id="Контур_6678" data-name="Контур 6678" d="M10.594,32.938h-.1l-1.707-.414-.5-1.091a.252.252,0,0,1,0-.218l.184-.328-.228-.534-.13-.317,1.761-.752v.1c.272.643,1.088,2.258,1.088,2.28a.383.383,0,0,1,0,.393.3.3,0,0,1-.261.163.436.436,0,0,1,.141.4.316.316,0,0,1-.293.316h.043Zm-1.6-.545,1.6.338c.075,0,.1-.12.1-.131s0-.23-.141-.25L9.463,32.1c-.13-.13-.12-.24,0-.316l.413-1.244.762,1.353c.065.142.185.153.239.065a.23.23,0,0,0,0-.207c0-.054-.772-1.494-1.088-2.182l-1.338.611v.131c.077.2.153.393.24.567l-.229.437.479,1.09.054-.01Zm.588-.48.924.207a.676.676,0,0,1-.1-.13l-.533-.95Z" fill="#231f20"/>
      <path id="Контур_6679" data-name="Контур 6679" d="M12.606,11.524l1.012.534.6-.469c.38-.164.576.23.38.382a19.138,19.138,0,0,0-1.8,1.582L11.7,12.309l.37-.338.434-.436a.12.12,0,0,1,.1-.011Z" fill="#00ab4e"/>
      <path id="Контур_6680" data-name="Контур 6680" d="M12.791,13.695l-1.272-1.386.065-.076.217-.2.164-.141.435-.437a.26.26,0,0,1,.152-.054h.12l.935.5.544-.425a.4.4,0,0,1,.609.185.306.306,0,0,1-.1.35,17.951,17.951,0,0,0-1.795,1.57l-.076.077V13.7ZM11.8,12.32l.99,1.09a19.17,19.17,0,0,1,1.74-1.515.1.1,0,0,0,0-.12c0-.077-.141-.153-.3-.077l-.631.491-1.088-.567-.456.436-.174.153-.131.12Z" fill="#231f20"/>
      <path id="Контур_6681" data-name="Контур 6681" d="M13.618,12.09l-1.012-.534a.12.12,0,0,0-.141,0l-.446.426.141-.72.75-.666a.108.108,0,0,1,.11,0l.413.142c.228-.174.511-.36.75-.523l.881,1.44-.467.36c.195-.153,0-.546-.381-.382l-.6.458Z" fill="#00ab4e"/>
      <path id="Контур_6682" data-name="Контур 6682" d="M11.856,12.244l.206-1.015.805-.753h.109l.435.131.533-.36.283-.218.99,1.615-.544.4-.13-.163a.1.1,0,0,0,0-.12c0-.077-.142-.153-.3-.077l-.631.491-1.088-.567-.707.633h.044Zm.7-.84h.12l.935.5.544-.425a.4.4,0,0,1,.609.185l.174-.12-.783-1.265h-.087c-.2.13-.4.262-.566.393l-.468-.153-.76.665-.055.36.228-.218a.26.26,0,0,1,.152-.054l-.043.13Z" fill="#231f20"/>
      <path id="Контур_6683" data-name="Контур 6683" d="M33.8,11.36l-.38,1.09.543.535c.229.35-.13.6-.315.426a16.329,16.329,0,0,0-1.806-1.55l1.088-1.32.37.3.5.4a.12.12,0,0,1,0,.12Z" fill="#32a060"/>
      <path id="Контур_6684" data-name="Контур 6684" d="M33.739,13.564a.293.293,0,0,1-.207-.088,17.144,17.144,0,0,0-1.794-1.538l-.11-.065,1.2-1.484.076.055.261.207.62.5a.2.2,0,0,1,.055.262l-.348,1,.5.48a.46.46,0,0,1,0,.48.37.37,0,0,1-.305.186h.055Zm-1.8-1.735a20.992,20.992,0,0,1,1.73,1.495h.065a.163.163,0,0,0,.13-.077.24.24,0,0,0,0-.25l-.576-.557.4-1.09-.62-.514L32.9,10.7l-.913,1.156-.044-.022Z" fill="#231f20"/>
      <path id="Контур_6685" data-name="Контур 6685" d="M33.37,12.44l.38-1.09a.12.12,0,0,0,0-.132l-.5-.425.739.076.761.644a.11.11,0,0,1,0,.109l-.076.425c.207.2.457.458.642.666L34.022,13.8l-.435-.425c.184.175.543-.076.315-.425l-.533-.513Z" fill="#32a060"/>
      <path id="Контур_6686" data-name="Контур 6686" d="M34.033,13.956l-.5-.48.14-.152h.2a.24.24,0,0,0,0-.251l-.576-.557.4-1.09-.75-.655,1.088.1.826.666a.208.208,0,0,1,.065.207l-.065.382c.2.2.435.436.61.632l.075.077L34.1,14.055l-.065-.1Zm-.153-.425.153.153,1.152-.96-.565-.633.087-.48-.772-.655h-.37l.26.219a.2.2,0,0,1,.055.261l-.348,1,.5.48a.46.46,0,0,1,0,.48.37.37,0,0,1-.163.153l.011-.022Z" fill="#231f20"/>
      <path id="Контур_6687" data-name="Контур 6687" d="M23.265,8.7a2.778,2.778,0,1,0-1.972-.815,2.789,2.789,0,0,0,1.972.815Z" fill="#32a060"/>
      <path id="Контур_6688" data-name="Контур 6688" d="M23.265,8.818a2.9,2.9,0,1,1,2.07-.842,2.9,2.9,0,0,1-2.07.842Zm0-5.585a2.678,2.678,0,1,0,1.9.782,2.686,2.686,0,0,0-1.9-.782Z" fill="#231f20"/>
      <path id="Контур_6689" data-name="Контур 6689" d="M41.146,23.655a2.79,2.79,0,1,0-1.985-.834,2.789,2.789,0,0,0,1.985.834Z" fill="#32a060"/>
      <path id="Контур_6690" data-name="Контур 6690" d="M41.146,23.753a1.206,1.206,0,1,0,0-.044v.044Zm0-5.575a1.113,1.113,0,1,0,0-.043v.043Z" fill="#231f20"/>
      <path id="Контур_6691" data-name="Контур 6691" d="M5.417,23.655a2.79,2.79,0,1,0-1.984-.834,2.789,2.789,0,0,0,1.984.834Z" fill="#32a060"/>
      <path id="Контур_6692" data-name="Контур 6692" d="M5.417,23.753A2.886,2.886,0,1,1,7.478,22.9a2.887,2.887,0,0,1-2.061.858Zm0-5.575A2.7,2.7,0,1,0,8.1,20.818,2.686,2.686,0,0,0,5.417,18.178Z" fill="#231f20"/>
      <path id="Контур_6693" data-name="Контур 6693" d="M40.406,24.09a16.011,16.011,0,0,1-1.49,6.546l-.957-.4-1.523-.7-.62-.306a12.829,12.829,0,0,0,1.251-5.6,13.769,13.769,0,0,0-3.622-9.36l.588-.491,1.294-1.091.729-.59a16.1,16.1,0,0,1,3.382,5.826,3.275,3.275,0,0,0-1.631,2.891,3.347,3.347,0,0,0,2.6,3.273Z" fill="#32a060"/>
      <path id="Контур_6694" data-name="Контур 6694" d="M38.97,30.713l-1.087-.437-2.252-1.09v-.1a12.577,12.577,0,0,0,1.186-5.454,13.681,13.681,0,0,0-3.535-9.24l.01-.12,2.764-2.313.065.076a15.85,15.85,0,0,1,3.415,5.859v.076h-.065A3.166,3.166,0,0,0,37.9,20.818a3.27,3.27,0,0,0,2.524,3.142h.087v.13a15.726,15.726,0,0,1-1.5,6.546v.088l-.044-.011Zm-2.99-1.582,2.055.96.86.36a15.628,15.628,0,0,0,1.435-6.262,3.489,3.489,0,0,1-2.621-3.37,3.275,3.275,0,0,1,1.61-2.935,15.72,15.72,0,0,0-3.263-5.651l-2.47,2.094a13.933,13.933,0,0,1,3.481,9.306A12.96,12.96,0,0,1,35.9,29.087l.076.044Z" fill="#231f20"/>
      <path id="Контур_6695" data-name="Контур 6695" d="M26.5,6.636a17.04,17.04,0,0,1,6.928,3.077l-.576.807-1.088,1.32-.435.6a13.5,13.5,0,0,0-8.179-2.7,13.707,13.707,0,0,0-7.765,2.356l-.316-.513-.837-1.407-.588-.96a16.96,16.96,0,0,1,6.352-2.575A3.494,3.494,0,0,0,23.2,9.287a3.265,3.265,0,0,0,3.3-2.65Z" fill="#32a060"/>
      <path id="Контур_6696" data-name="Контур 6696" d="M31.379,12.593l-.087-.066a13.67,13.67,0,0,0-15.858-.316l-.087.054L13.455,9.189l.076-.054A17.232,17.232,0,0,1,19.969,6.5h.087v.088a3.385,3.385,0,0,0,3.111,2.585,3.189,3.189,0,0,0,3.22-2.542v-.1h.108a17.275,17.275,0,0,1,6.972,3.1l.076.066-.642.883-1.544,2.008ZM23.145,9.625a13.649,13.649,0,0,1,8.19,2.684l.38-.524,1.089-1.32.522-.72a16.8,16.8,0,0,0-6.7-2.978,3.46,3.46,0,0,1-3.383,2.608A3.58,3.58,0,0,1,19.98,6.724a17.058,17.058,0,0,0-6.188,2.52l1.686,2.727a13.925,13.925,0,0,1,7.667-2.346Z" fill="#231f20"/>
      <path id="Контур_6697" data-name="Контур 6697" d="M13.14,13.967l-.392-.414L11.66,12.309l-.783-.85a17.266,17.266,0,0,0-3.992,6.37,3.34,3.34,0,0,1-.99,6.316A17.33,17.33,0,0,0,7.32,30.56l.98-.447,1.576-.688.6-.272a13.973,13.973,0,0,1,2.665-15.186Z" fill="#32a060"/>
      <path id="Контур_6698" data-name="Контур 6698" d="M7.277,30.69v-.1a17.236,17.236,0,0,1-1.436-6.448v-.054h.1a3.257,3.257,0,0,0,.892-6.175H6.755V17.84a17.462,17.462,0,0,1,4.013-6.4l.076-.076,2.447,2.65-.065.077a13.875,13.875,0,0,0-2.708,15.022v.1L7.255,30.691h.022ZM6,24.233a16.974,16.974,0,0,0,1.37,6.185L10.29,29.1a14.083,14.083,0,0,1,2.751-15.13l-2.175-2.357a17.375,17.375,0,0,0-3.872,6.174,3.44,3.44,0,0,1-1,6.448H6Z" fill="#231f20"/>
      <path id="Контур_6699" data-name="Контур 6699" d="M19.415,19.88V12.822h7.744V19.88H34.2v7.778H27.159v7.058H19.415V27.658H12.367V19.88Z" fill="#32a060"/>
      <path id="Контур_6700" data-name="Контур 6700" d="M27.278,34.815H19.306V27.756H12.269V19.782h7.037v-7.07h7.972v7.07h7.037v7.974H27.278v7.059Zm-7.754-.208h7.537V27.55H34.1V19.98H27.06V12.92H19.512v7.058H12.475v7.571h7.037v7.058h.01ZM9.43,33.91,8.7,35.742l1.337-1.091.305.393L8.408,36.571,8.1,36.178l.74-1.843-1.349,1.09-.315-.4L9.126,33.5Zm.446,3.74a.72.72,0,0,1-.206-.435,1.1,1.1,0,0,1,.946-.993.728.728,0,0,1,.446.2.72.72,0,0,1,.206.437,1.1,1.1,0,0,1-.946.992.728.728,0,0,1-.446-.2Zm1.436.208a1.452,1.452,0,0,0,.424-.97A1.241,1.241,0,0,0,10.572,35.8a1.5,1.5,0,0,0-.946.459,1.452,1.452,0,0,0-.424.97,1.236,1.236,0,0,0,1.175,1.135,1.5,1.5,0,0,0,.935-.5Zm1.24-.108.555.4a.256.256,0,0,1,.087.4.326.326,0,0,1-.468.12l-.555-.4.38-.524Zm-1.588,1.363.413.294.566-.8.478.349c.142.11.2.24.1.382l-.293.4a.525.525,0,0,0-.077.23l.435.316V40c0-.109.25-.37.305-.458a.448.448,0,0,0,0-.436.64.64,0,0,0,.5-.12.862.862,0,0,0,.272-.415.58.58,0,0,0-.217-.654L12.356,37.1l-1.392,2.008Zm4.089.622c.11-.175.055-.415-.25-.59s-.413-.13-.522,0a.2.2,0,0,0,0,.295,2.552,2.552,0,0,0,.468.425,1.191,1.191,0,0,1,.391.5.785.785,0,0,1-.663.873,1.41,1.41,0,0,1-.75-.218,1.09,1.09,0,0,1-.446-.437.9.9,0,0,1,0-.73l.424.24a.4.4,0,0,0,0,.272.62.62,0,0,0,.337.35.673.673,0,0,0,.391.087.294.294,0,0,0,.218-.36c-.065-.23-.49-.459-.707-.71a.6.6,0,0,1-.065-.818.734.734,0,0,1,1.087-.152,1.087,1.087,0,0,1,.577.676.623.623,0,0,1-.109.48l-.38-.185Zm1.077-.3.468.175-.4,1.014,1.3-.654.554.218-1.294.643.49,1.691-.566-.218-.348-1.287-.348.163-.283.742-.468-.185Zm4.688,1.375-.076.414-1.186-.24-.12.556,1.088.208-.087.414L19.35,41.96l-.207,1.09-.49-.1.49-2.5ZM21.96,43.03a.652.652,0,0,1-.435-.2,1,1,0,0,1-.207-.7.972.972,0,0,1,.294-.677.64.64,0,0,1,.457-.13.62.62,0,0,1,.435.2.962.962,0,0,1,.206.7.929.929,0,0,1-.293.665.651.651,0,0,1-.457.142Zm1.229-.775A1.53,1.53,0,0,0,22.9,41.24a1.151,1.151,0,0,0-.794-.36,1.085,1.085,0,0,0-.837.25,1.475,1.475,0,0,0-.424.96,1.493,1.493,0,0,0,.293,1.015,1.233,1.233,0,0,0,1.621.11,1.42,1.42,0,0,0,.435-.96Zm.826-1.31L24.135,43,25.3,42.92v.425l-1.664.1-.152-2.466Zm1.458-.1.5-.087.2,1.09.75-1.243L27.5,40.5l-.75,1.222,1.305,1.19-.6.108-.978-.916-.2.327.141.786-.49.087Zm3.981-1,.12.4-1.2.393.174.535,1.088-.36.13.4-1.088.36.2.611,1.25-.414.131.4-1.729.567-.761-2.356Zm.293-.12L30.2,39.5l.4.84.87-.414-.39-.84.445-.218,1.088,2.236-.457.218-.533-1.014-.87.414.478,1.015-.456.218Zm3.263-1.779,1,1.593A.712.712,0,0,1,34.1,40a.753.753,0,0,1-.294.459,1.01,1.01,0,0,1-.478.2.728.728,0,0,1-.61-.35l-.14-.24L33,39.789l.13.218a.275.275,0,1,0,.479-.262l-1.022-1.472.424-.328Zm1.708-1.33.26.327-.989.8.359.437.914-.731.26.327-.913.742L35,39l1.033-.828.272.338-1.414,1.145-1.556-1.93ZM35.327,36l1.457,1.44.827-.83.3.295-1.174,1.2-1.762-1.745Zm1.631-1.168.337-.425a.282.282,0,0,1,.338-.131.49.49,0,0,1,.26.218.318.318,0,0,1,0,.35l-.347.447-.588-.459Zm1.305,1.659.316-.393-.7-.546.37-.48a.689.689,0,0,0,.076-.818,1.088,1.088,0,0,0-.588-.469.7.7,0,0,0-.761.327l-.663.862,1.946,1.517Z" fill="#231f20"/>
      <path id="Контур_6701" data-name="Контур 6701" d="M61.517,21.364q1.051,1.767,2.045,3.567s-.12-2.75-.12-4.364V15.92h3.045V29.84H63.4l-3.263-5.367c-.783-1.288-2.11-3.742-2.11-3.742s.141,2.313.141,4.538V29.84h-3.1V15.92H58.19l3.328,5.444Zm12.257-1.506a4.782,4.782,0,0,1,5.155,5.15c0,3.272-2.1,5.072-5.155,5.072s-5.166-1.778-5.166-5.073a4.77,4.77,0,0,1,5.166-5.148Zm0,7.953c1.36,0,2.176-1.091,2.176-2.847s-.762-2.859-2.176-2.859S71.6,23.2,71.6,24.964,72.4,27.811,73.774,27.811ZM83.835,20.1v1.331a2.946,2.946,0,0,1,2.73-1.56,2.022,2.022,0,0,1,.348,0v2.87a3.959,3.959,0,0,0-.957-.12,1.773,1.773,0,0,0-1.936,1.363,4.781,4.781,0,0,0-.141,1.309v4.527H80.866V20.1h2.97Zm10.876,2.967a4,4,0,0,0-2.632-1.09c-.674,0-1.261.229-1.261.72s.446.654,1.446.861l1.534.328c1.566.327,2.99.96,2.99,2.825,0,2.27-1.979,3.35-4.274,3.35a6.235,6.235,0,0,1-4.981-2.183l1.882-1.5a3.879,3.879,0,0,0,3.121,1.5c.99,0,1.5-.327,1.5-.861s-.587-.655-1.24-.775l-1.533-.316a4.963,4.963,0,0,1-2.4-1.015A2.4,2.4,0,0,1,87.979,23c0-2.313,2.175-3.142,4.144-3.142a5.986,5.986,0,0,1,4.242,1.615l-1.654,1.592Zm6.907-7.145v7.385l3.11-3.207h3.927l-3.948,3.786,4.241,5.956h-3.676l-2.708-3.97-.946.883V29.84h-2.97V15.92Zm16.825,2.716v2.739h5.634v2.76h-5.655v5.694h-3.046V15.92h9v2.716Zm12.095,1.222a4.783,4.783,0,0,1,5.155,5.15c0,3.272-2.1,5.072-5.155,5.072s-5.145-1.778-5.145-5.073a4.772,4.772,0,0,1,5.144-5.149Zm0,7.953c1.36,0,2.175-1.091,2.175-2.847s-.761-2.859-2.175-2.859-2.175,1.091-2.175,2.859S129.167,27.811,130.538,27.811ZM140.61,29.84h-2.98V15.92h2.98ZM146.3,15.92v7.385l3.1-3.207h3.937l-3.96,3.786,4.242,5.956h-3.665l-2.72-3.97-.934.883V29.84h-2.98V15.92Zm17.249,11.847a5.433,5.433,0,0,1-4.666,2.313,4.8,4.8,0,0,1-5.046-5.149,4.794,4.794,0,0,1,5.046-5.073c3.2,0,4.83,2.3,4.83,5.27.01.206.01.414,0,.621h-7.005a2.177,2.177,0,0,0,2.339,1.975,2.739,2.739,0,0,0,2.414-1.342Zm-6.84-3.949h4.056a1.863,1.863,0,0,0-1.947-1.909,2.014,2.014,0,0,0-2.11,1.91Zm18.119,6.022h-2.98V24.93c0-1.494-.065-2.54-1.534-2.54-1.24,0-1.772.98-1.772,2.312V29.84h-2.98V15.92h2.98v5.324a3.314,3.314,0,0,1,2.87-1.386,3.257,3.257,0,0,1,2.557.938c.609.7.86,1.364.86,3.513V29.84Zm5.547-9.742V30.342a4.594,4.594,0,0,1-.272,1.767c-.424,1.091-1.36,1.451-3.176,1.451h-1.164V31.182h.185c.87,0,1.4-.142,1.4-1.287V20.076l3.024.022Zm0-1.243h-3V15.92H180.4Zm11.518,8.912a5.433,5.433,0,0,1-4.655,2.313,4.8,4.8,0,0,1-5.036-5.149,4.794,4.794,0,0,1,4.96-5.073c3.2,0,4.829,2.3,4.829,5.27a5.846,5.846,0,0,1,0,.621h-6.907a2.177,2.177,0,0,0,2.339,1.975,2.728,2.728,0,0,0,2.4-1.342Zm-6.809-3.949h4.057a1.871,1.871,0,0,0-1.979-1.908A2.015,2.015,0,0,0,185.082,23.818Zm11.8,6.022H193.9V15.92h2.98Zm5.591-.884v4.56h-2.98V20.1h2.98v.9A3.909,3.909,0,0,1,205.3,19.9c2.774,0,4.536,2.04,4.536,5.1s-1.816,5.117-4.536,5.117a3.627,3.627,0,0,1-2.827-1.168Zm2.175-1.145c1.392,0,2.175-1.091,2.175-2.847s-.75-2.859-2.175-2.859-2.175,1.168-2.175,2.859.815,2.847,2.088,2.847Z" transform="translate(0 -6)" fill="#212121"/>
    </g>
    <text id="Symbolske_Gaver" data-name="Symbolske Gaver" transform="translate(421 97)" fill="#007f54" font-size="15" font-family="Roboto-Regular, Roboto"><tspan x="0" y="0">Symbolske Gaver</tspan></text>
  </g>
</svg>
