<svg xmlns="http://www.w3.org/2000/svg" width="226.721" height="50" viewBox="0 0 226.721 50">
  <g id="Сгруппировать_2272" data-name="Сгруппировать 2272" transform="translate(-10.315 -10.563)">
    <g id="Сгруппировать_2285" data-name="Сгруппировать 2285" transform="translate(10.315 10.563)">
      <path id="Контур_6539" data-name="Контур 6539" d="M11.577,35.324A23.59,23.59,0,1,1,35.168,58.848,23.555,23.555,0,0,1,11.577,35.324Z" transform="translate(-10.093 -10.349)" fill="#fff"/>
      <path id="Контур_6540" data-name="Контур 6540" d="M35.39,60.563a25,25,0,1,1,25.073-25,25.065,25.065,0,0,1-25.073,25Zm0-48.546A23.548,23.548,0,1,0,59.005,35.565,23.609,23.609,0,0,0,35.39,12.017Z" transform="translate(-10.315 -10.563)" fill="#009d3a"/>
      <g id="Сгруппировать_2272-2" data-name="Сгруппировать 2272" transform="translate(37.994 31.432)">
        <path id="Контур_6541" data-name="Контур 6541" d="M44.315,40.207a.108.108,0,0,0-.012-.143l-.379-1.155-.7,1.241c-.207.382-.638.108-.457-.251,0,0,.9-1.747,1.139-2.4l1.653.753c-.071.23-.2.416-.319.782l.227.41a.119.119,0,0,1,0,.124l-.544,1.152L43.2,41.09c-.346.117-.407-.532-.058-.617C43.409,40.41,44.315,40.207,44.315,40.207Z" transform="translate(-42.615 -37.354)" fill="#009d3a"/>
        <path id="Контур_6542" data-name="Контур 6542" d="M43.138,41.236a.337.337,0,0,1-.319-.333.5.5,0,0,1,.154-.435.353.353,0,0,1-.283-.169.433.433,0,0,1,0-.428c.009-.02.9-1.749,1.135-2.383l.041-.113,1.849.842-.028.093a2.592,2.592,0,0,1-.132.32,3.477,3.477,0,0,0-.187.463l.217.325a.228.228,0,0,1,0,.225l-.62,1.213-1.831.38Zm.829-2.575.46,1.389c.051.027.061.15,0,.243-.067.045-.972.249-1.239.311-.126.03-.158.181-.146.273,0,.016.02.138.1.138v.111l.043-.118,1.687-.356.521-1.1-.226-.434a2.111,2.111,0,0,1,.189-.578c.033-.069.062-.135.088-.2l-1.454-.661c-.286.71-1.066,2.23-1.1,2.3a.226.226,0,0,0-.006.213c.06.1.193.077.267-.064l.822-1.459Zm-.053.545-.574,1.022a.665.665,0,0,1-.1.138c.344-.081,1.072-.244,1.072-.244l-.022-.02-.072.016-.3-.913Z" transform="translate(-42.632 -37.376)" fill="#1a1818"/>
      </g>
      <g id="Сгруппировать_2273" data-name="Сгруппировать 2273" transform="translate(8.727 31.372)">
        <path id="Контур_6543" data-name="Контур 6543" d="M19.153,40.216a.108.108,0,0,1,.014-.143l.379-1.155.7,1.241c.2.382.637.108.457-.251,0,0-.905-1.761-1.194-2.458l-1.647.741c.118.279.235.586.366.856l-.225.41a.119.119,0,0,0,0,.124l.543,1.152,1.728.365c.346.117.407-.532.058-.617C20.061,40.419,19.153,40.216,19.153,40.216Z" transform="translate(-17.717 -37.303)" fill="#009d3a"/>
        <path id="Контур_6544" data-name="Контур 6544" d="M20.371,41.245h0l-.115-.021L18.463,40.8l-.544-1.151a.232.232,0,0,1,.007-.225l.2-.361c-.085-.179-.166-.376-.243-.566l-.142-.341,1.85-.833.043.107c.283.683,1.18,2.429,1.19,2.449a.431.431,0,0,1,0,.426.352.352,0,0,1-.285.171.494.494,0,0,1,.154.435.338.338,0,0,1-.317.333ZM18.64,40.66l1.732.363h0c.08,0,.1-.122.1-.136.012-.095-.019-.245-.147-.275-.267-.062-1.171-.266-1.171-.266-.133-.137-.12-.261-.036-.335l.424-1.341.822,1.458c.079.147.209.161.268.066a.224.224,0,0,0-.006-.216c-.034-.067-.829-1.613-1.152-2.357l-1.447.651.06.145c.082.205.169.414.263.6l.026.053-.255.461.521,1.125Zm.631-.513c.2.045.725.164,1,.229a.609.609,0,0,1-.1-.142l-.575-1.019-.322.932Z" transform="translate(-17.738 -37.325)" fill="#1a1818"/>
      </g>
      <g id="Сгруппировать_2274" data-name="Сгруппировать 2274" transform="translate(12.355 12.152)">
        <path id="Контур_6545" data-name="Контур 6545" d="M21.978,21.044l1.092.58.65-.505c.41-.179.624.24.409.407a19.3,19.3,0,0,0-1.948,1.7L20.954,21.89c.12-.12.283-.247.406-.365l.471-.467A.115.115,0,0,1,21.978,21.044Z" transform="translate(-20.801 -20.913)" fill="#009d3a"/>
        <path id="Контур_6546" data-name="Контур 6546" d="M22.2,23.4l-1.377-1.5.075-.075c.068-.069.15-.141.232-.21.062-.053.122-.107.176-.157L21.775,21a.234.234,0,0,1,.163-.068l.127.043,1.017.537.593-.46c.352-.169.573-.032.652.2a.335.335,0,0,1-.108.38,19.125,19.125,0,0,0-1.937,1.69L22.2,23.4Zm-1.07-1.488,1.075,1.169a19.187,19.187,0,0,1,1.881-1.628.118.118,0,0,0,.033-.132c-.031-.083-.158-.159-.332-.084l-.683.533-1.156-.613-.488.463c-.059.054-.121.109-.186.164-.048.043-.1.086-.145.129Z" transform="translate(-20.824 -20.929)" fill="#1a1818"/>
      </g>
      <g id="Сгруппировать_2275" data-name="Сгруппировать 2275" transform="translate(12.718 10.682)">
        <path id="Контур_6547" data-name="Контур 6547" d="M23.012,21.834l-1.092-.58a.115.115,0,0,0-.147.015l-.49.452.154-.764.808-.719a.123.123,0,0,1,.122-.021l.447.143c.242-.181.557-.384.809-.552l.956,1.545-.507.382c.215-.166,0-.586-.409-.407Z" transform="translate(-21.107 -19.652)" fill="#009d3a"/>
        <path id="Контур_6548" data-name="Контур 6548" d="M21.133,22.058l.221-1.1.874-.809.121-.029.47.142c.175-.131.383-.268.575-.4l.287-.192,1.07,1.728-.587.443-.134-.175a.118.118,0,0,0,.035-.134c-.031-.083-.158-.159-.332-.084l-.683.533-1.156-.613-.762.685Zm.751-.913.127.043,1.017.537.593-.46c.352-.169.573-.032.652.2l.006.019.18-.135-.844-1.365-.1.066c-.206.137-.429.285-.61.422l-.046.034-.5-.162-.824.717-.063.383.253-.234a.227.227,0,0,1,.16-.066Z" transform="translate(-21.133 -19.675)" fill="#1a1818"/>
      </g>
      <g id="Сгруппировать_2276" data-name="Сгруппировать 2276" transform="translate(34.114 11.068)">
        <path id="Контур_6549" data-name="Контур 6549" d="M41.579,21.025l-.413,1.165.6.566c.24.376-.145.652-.343.463a18.591,18.591,0,0,0-1.953-1.666l1.135-1.42c.138.1.272.209.4.311l.537.437A.116.116,0,0,1,41.579,21.025Z" transform="translate(-39.308 -19.983)" fill="#009d3a"/>
        <path id="Контур_6550" data-name="Контур 6550" d="M41.6,23.412a.33.33,0,0,1-.229-.091,18.766,18.766,0,0,0-1.941-1.655l-.093-.069L40.606,20l.085.062c.094.069.186.142.279.215l.665.538a.218.218,0,0,1,.063.28l-.381,1.081.544.519a.484.484,0,0,1,.06.512.38.38,0,0,1-.327.2Zm-1.948-1.857a19.224,19.224,0,0,1,1.873,1.607l.075.03a.166.166,0,0,0,.134-.086.266.266,0,0,0-.038-.27l-.631-.594.436-1.232-.663-.556-.188-.147-1,1.246Z" transform="translate(-39.332 -20.005)" fill="#1a1818"/>
      </g>
      <g id="Сгруппировать_2277" data-name="Сгруппировать 2277" transform="translate(35.476 11.373)">
        <path id="Контур_6551" data-name="Контур 6551" d="M40.936,22.147l.413-1.165a.116.116,0,0,0-.036-.143l-.534-.452.792.075.832.692a.118.118,0,0,1,.039.117l-.076.462c.216.212.487.5.691.719l-1.4,1.176-.468-.45c.2.189.583-.087.343-.463Z" transform="translate(-40.439 -20.244)" fill="#009d3a"/>
        <path id="Контур_6552" data-name="Контур 6552" d="M41.7,23.8l-.54-.52.154-.158c.126.03.18,0,.209-.055a.266.266,0,0,0-.038-.27l-.631-.594.436-1.232-.8-.7,1.14.107.894.717a.236.236,0,0,1,.079.217l-.068.409c.21.207.463.472.656.681l.078.084L41.7,23.8Zm-.161-.461.172.164,1.237-1.036c-.193-.206-.423-.447-.61-.631l-.04-.041.085-.519-.834-.706-.4-.027.277.238a.216.216,0,0,1,.062.278l-.381,1.081.544.519a.484.484,0,0,1,.06.512.383.383,0,0,1-.178.168Z" transform="translate(-40.49 -20.265)" fill="#1a1818"/>
      </g>
      <g id="Сгруппировать_2278" data-name="Сгруппировать 2278" transform="translate(21.939 3.144)">
        <path id="Контур_6553" data-name="Контур 6553" d="M32.077,19.337a3,3,0,1,0-3.007-3A3,3,0,0,0,32.077,19.337Z" transform="translate(-28.96 -13.229)" fill="#009d3a"/>
        <path id="Контур_6554" data-name="Контур 6554" d="M32.094,19.464a3.109,3.109,0,1,1,3.12-3.11,3.118,3.118,0,0,1-3.12,3.11Zm0-6a2.889,2.889,0,1,0,2.9,2.888,2.9,2.9,0,0,0-2.9-2.888Z" transform="translate(-28.976 -13.245)" fill="#1a1818"/>
      </g>
      <g id="Сгруппировать_2279" data-name="Сгруппировать 2279" transform="translate(41.265 19.21)">
        <path id="Контур_6555" data-name="Контур 6555" d="M48.516,33.045a3,3,0,1,0-3.009-3A3,3,0,0,0,48.516,33.045Z" transform="translate(-45.398 -26.934)" fill="#009d3a"/>
        <path id="Контур_6556" data-name="Контур 6556" d="M48.532,33.171a3.111,3.111,0,1,1,3.12-3.109,3.117,3.117,0,0,1-3.12,3.109Zm0-6a2.89,2.89,0,1,0,2.9,2.891,2.9,2.9,0,0,0-2.9-2.891Z" transform="translate(-45.414 -26.95)" fill="#1a1818"/>
      </g>
      <g id="Сгруппировать_2280" data-name="Сгруппировать 2280" transform="translate(2.644 19.21)">
        <path id="Контур_6557" data-name="Контур 6557" d="M15.666,33.045a3,3,0,1,0-3.007-3A3,3,0,0,0,15.666,33.045Z" transform="translate(-12.547 -26.934)" fill="#009d3a"/>
        <path id="Контур_6558" data-name="Контур 6558" d="M15.683,33.171a3.111,3.111,0,1,1,3.12-3.109,3.118,3.118,0,0,1-3.12,3.109Zm0-6a2.89,2.89,0,1,0,2.9,2.891,2.9,2.9,0,0,0-2.9-2.891Z" transform="translate(-12.564 -26.95)" fill="#1a1818"/>
      </g>
      <g id="Сгруппировать_2281" data-name="Сгруппировать 2281" transform="translate(35.895 12.79)">
        <path id="Контур_6559" data-name="Контур 6559" d="M48.508,34.464a17.023,17.023,0,0,1-1.609,6.96L45.868,41l-1.653-.753-.671-.324a13.7,13.7,0,0,0,1.294-5.961,14.705,14.705,0,0,0-3.854-10.008l.636-.535,1.4-1.176L43.8,21.6a17.062,17.062,0,0,1,3.66,6.266A3.492,3.492,0,0,0,45.7,30.983,3.622,3.622,0,0,0,48.508,34.464Z" transform="translate(-40.823 -21.452)" fill="#009d3a"/>
        <path id="Контур_6560" data-name="Контур 6560" d="M46.976,41.587l-1.126-.47-2.431-1.125.051-.1a13.553,13.553,0,0,0,1.283-5.91,14.682,14.682,0,0,0-3.826-9.934l-.079-.084,2.989-2.489.071.077a17.13,17.13,0,0,1,3.683,6.3l.027.079-.069.047a3.376,3.376,0,0,0-1.713,3.026,3.511,3.511,0,0,0,2.717,3.371l.094.018,0,.093A17.065,17.065,0,0,1,47.022,41.5l-.046.091Zm-3.26-1.7,2.222,1.027.931.387a16.906,16.906,0,0,0,1.552-6.73,3.751,3.751,0,0,1-2.807-3.57,3.555,3.555,0,0,1,1.74-3.158,16.872,16.872,0,0,0-3.539-6.071l-2.648,2.207a14.909,14.909,0,0,1,3.806,10,13.884,13.884,0,0,1-1.257,5.91Z" transform="translate(-40.847 -21.474)" fill="#1a1818"/>
      </g>
      <g id="Сгруппировать_2282" data-name="Сгруппировать 2282" transform="translate(14.445 6.879)">
        <path id="Контур_6561" data-name="Контур 6561" d="M36.677,16.575a18.606,18.606,0,0,1,7.495,3.307l-.631.871-1.135,1.42-.475.641a14.619,14.619,0,0,0-8.868-2.92,14.949,14.949,0,0,0-8.4,2.567l-.339-.545-.956-1.545-.638-1.033a18.579,18.579,0,0,1,6.915-2.8A3.784,3.784,0,0,0,33.111,19.4,3.566,3.566,0,0,0,36.677,16.575Z" transform="translate(-22.58 -16.412)" fill="#009d3a"/>
        <path id="Контур_6562" data-name="Контур 6562" d="M41.977,22.986l-.091-.066a14.607,14.607,0,0,0-8.8-2.9,14.819,14.819,0,0,0-8.338,2.548l-.094.064L22.6,19.324l.088-.059a18.6,18.6,0,0,1,6.956-2.817l.1-.018.027.1a3.667,3.667,0,0,0,3.36,2.776,3.462,3.462,0,0,0,3.455-2.724l.018-.116.114.022a18.6,18.6,0,0,1,7.541,3.326l.087.066-.7.958-1.675,2.151ZM33.085,19.8a14.82,14.82,0,0,1,8.845,2.876l.409-.554L43.478,20.7l.562-.778a18.377,18.377,0,0,0-7.249-3.2,3.713,3.713,0,0,1-3.657,2.8,3.873,3.873,0,0,1-3.545-2.839A18.35,18.35,0,0,0,22.9,19.391l1.818,2.933a15.046,15.046,0,0,1,8.365-2.52Z" transform="translate(-22.602 -16.431)" fill="#1a1818"/>
      </g>
      <g id="Сгруппировать_2283" data-name="Сгруппировать 2283" transform="translate(6.164 12.058)">
        <path id="Контур_6563" data-name="Контур 6563" d="M23.534,23.682l-.422-.451L21.885,21.9l-.846-.912a18.655,18.655,0,0,0-4.317,6.844,3.588,3.588,0,0,1-1.065,6.789A18.456,18.456,0,0,0,17.2,41.506l1.048-.478,1.647-.741.657-.294a14.921,14.921,0,0,1,2.983-16.311Z" transform="translate(-15.541 -20.826)" fill="#009d3a"/>
        <path id="Контур_6564" data-name="Контур 6564" d="M17.16,41.676l-.046-.1a18.567,18.567,0,0,1-1.552-6.93l0-.1.1-.011a3.478,3.478,0,0,0,1.026-6.583L16.6,27.9l.032-.089a18.842,18.842,0,0,1,4.342-6.885l.081-.082L23.7,23.706l-.073.076A14.813,14.813,0,0,0,20.67,39.973l.044.1-3.553,1.6Zm-1.374-6.942a18.357,18.357,0,0,0,1.487,6.649l3.151-1.422A15.034,15.034,0,0,1,23.4,23.7l-2.347-2.536A18.631,18.631,0,0,0,16.874,27.8a3.694,3.694,0,0,1-1.087,6.933Z" transform="translate(-15.558 -20.849)" fill="#1a1818"/>
      </g>
      <g id="Сгруппировать_2284" data-name="Сгруппировать 2284" transform="translate(13.165 13.569)">
        <path id="Контур_6565" data-name="Контур 6565" d="M29.216,29.819V22.231H37.6v7.588H45.2v8.352H37.6v7.588H29.216V38.171H21.608V29.819Z" transform="translate(-21.496 -22.122)" fill="#009d3a"/>
        <path id="Контур_6566" data-name="Контур 6566" d="M37.722,45.885h-8.6V38.3h-7.61V29.725h7.61V22.138h8.6v7.587H45.33V38.3H37.722v7.588Zm-8.379-.222H37.5V38.077h7.608V29.945H37.5V22.358H29.343v7.587H21.735v8.132h7.608v7.587Z" transform="translate(-21.513 -22.138)" fill="#1a1818"/>
      </g>
      <path id="Контур_6567" data-name="Контур 6567" d="M19.266,41.668l-.784,1.967,1.444-1.127.334.427-2.1,1.639-.332-.418.805-1.985-1.463,1.144-.336-.427,2.1-1.64Z" transform="translate(-9.17 -5.277)" fill="#1a1818"/>
      <path id="Контур_6568" data-name="Контур 6568" d="M19.428,45.292a.687.687,0,0,1-.225-.467,1.044,1.044,0,0,1,.322-.715,1.065,1.065,0,0,1,.7-.348.73.73,0,0,1,.475.209.7.7,0,0,1,.223.468,1.031,1.031,0,0,1-.322.712,1.042,1.042,0,0,1-.7.348A.7.7,0,0,1,19.428,45.292Zm1.552.22a1.568,1.568,0,0,0,.459-1.035,1.33,1.33,0,0,0-1.266-1.22,1.6,1.6,0,0,0-1.022.492,1.571,1.571,0,0,0-.457,1.037,1.191,1.191,0,0,0,.4.849,1.2,1.2,0,0,0,.864.369A1.581,1.581,0,0,0,20.98,45.513Z" transform="translate(-8.843 -4.932)" fill="#1a1818"/>
      <path id="Контур_6569" data-name="Контур 6569" d="M22.038,45.184l.594.433c.2.139.2.281.091.433a.353.353,0,0,1-.5.134l-.6-.436ZM20.3,46.647l.44.319.622-.85.514.373a.282.282,0,0,1,.107.408c-.121.151-.245.322-.316.433a.6.6,0,0,0-.089.245l.471.343.059-.082c-.025-.064-.041-.115.047-.236s.277-.4.332-.5a.485.485,0,0,0-.02-.47A.638.638,0,0,0,23,46.505a.905.905,0,0,0,.3-.447.61.61,0,0,0-.241-.7l-1.187-.863Z" transform="translate(-8.562 -4.718)" fill="#1a1818"/>
      <path id="Контур_6570" data-name="Контур 6570" d="M24.375,47.072c.108-.185.051-.443-.276-.629-.229-.13-.446-.144-.567.04a.209.209,0,0,0,.019.313,2.813,2.813,0,0,0,.5.463,1.226,1.226,0,0,1,.421.529.844.844,0,0,1-.71.942,1.575,1.575,0,0,1-.815-.231,1.226,1.226,0,0,1-.478-.474.932.932,0,0,1,.006-.781l.466.257a.38.38,0,0,0-.034.291.642.642,0,0,0,.36.375.67.67,0,0,0,.427.094.318.318,0,0,0,.227-.389c-.065-.243-.522-.492-.764-.755a.645.645,0,0,1-.063-.878c.241-.352.658-.481,1.224-.169a1.144,1.144,0,0,1,.62.721.753.753,0,0,1-.115.524Z" transform="translate(-8.194 -4.477)" fill="#1a1818"/>
      <path id="Контур_6571" data-name="Контур 6571" d="M25.206,46.63l.506.2-.427,1.088,1.392-.71.6.233-1.394.694.524,1.821-.613-.236-.37-1.388-.373.183-.309.792-.506-.195Z" transform="translate(-7.87 -4.35)" fill="#1a1818"/>
      <path id="Контур_6572" data-name="Контур 6572" d="M29.728,47.945l-.088.448-1.286-.253-.119.592,1.135.225-.089.449-1.133-.225-.225,1.12-.533-.1.52-2.612Z" transform="translate(-7.316 -4.186)" fill="#1a1818"/>
      <path id="Контур_6573" data-name="Контур 6573" d="M30.6,50.258a.7.7,0,0,1-.471-.209,1.162,1.162,0,0,1,.1-1.472.744.744,0,0,1,.969.067,1.04,1.04,0,0,1,.214.754,1.027,1.027,0,0,1-.314.716A.691.691,0,0,1,30.6,50.258Zm1.33-.826a1.571,1.571,0,0,0-.316-1.086,1.33,1.33,0,0,0-1.756-.118,1.635,1.635,0,0,0-.145,2.119,1.339,1.339,0,0,0,1.756.12A1.567,1.567,0,0,0,31.931,49.431Z" transform="translate(-6.964 -4.123)" fill="#1a1818"/>
      <path id="Контур_6574" data-name="Контур 6574" d="M32.431,48.013l.132,2.2,1.261-.076.027.454-1.8.108-.161-2.656Z" transform="translate(-6.525 -4.112)" fill="#1a1818"/>
      <path id="Контур_6575" data-name="Контур 6575" d="M33.66,47.982l.534-.1.214,1.146.805-1.336.633-.117L35.028,48.9l1.407,1.275-.644.117-1.05-.982-.216.352.155.836-.534.1Z" transform="translate(-6.214 -4.187)" fill="#1a1818"/>
      <path id="Контур_6576" data-name="Контур 6576" d="M37.582,47l.14.435-1.3.42.188.577,1.2-.389.141.433-1.2.389.214.654,1.36-.442.141.436-1.879.606-.823-2.532Z" transform="translate(-5.845 -4.287)" fill="#1a1818"/>
      <path id="Контур_6577" data-name="Контур 6577" d="M37.589,47.031l.49-.234.431.9.946-.449-.433-.906.491-.232,1.146,2.4-.49.229-.52-1.084-.944.448.517,1.088-.49.233Z" transform="translate(-5.524 -4.439)" fill="#1a1818"/>
      <path id="Контур_6578" data-name="Контур 6578" d="M40.66,45.265l1.083,1.715a.709.709,0,0,1,.093.491.831.831,0,0,1-.363.528,1.072,1.072,0,0,1-.51.207.774.774,0,0,1-.661-.375l-.161-.257.461-.291.143.232c.053.082.182.306.436.121a.281.281,0,0,0,.08-.4l-1.06-1.68Z" transform="translate(-5.076 -4.586)" fill="#1a1818"/>
      <path id="Контур_6579" data-name="Контур 6579" d="M42.376,44.044l.286.355-1.069.851.38.475.988-.785.285.352-.988.79.431.533,1.117-.89.287.356-1.544,1.23-1.666-2.074Z" transform="translate(-4.945 -4.796)" fill="#1a1818"/>
      <path id="Контур_6580" data-name="Контур 6580" d="M42.776,43.483l1.574,1.551.886-.9.327.319-1.27,1.286-1.9-1.869Z" transform="translate(-4.68 -4.893)" fill="#1a1818"/>
      <path id="Контур_6581" data-name="Контур 6581" d="M44.321,42.585l.359-.462a.322.322,0,0,1,.373-.144.613.613,0,0,1,.281.243.335.335,0,0,1,0,.373l-.375.479Zm1.411,1.778.336-.427-.754-.584.4-.508a.741.741,0,0,0,.086-.886,1.175,1.175,0,0,0-.635-.5.744.744,0,0,0-.817.347l-.721.926Z" transform="translate(-4.463 -5.245)" fill="#1a1818"/>
    </g>
    <g id="Сгруппировать_2286" data-name="Сгруппировать 2286" transform="translate(69.749 27.578)">
      <path id="Контур_6582" data-name="Контур 6582" d="M67.836,30.925c1.191,1.958,2.2,3.826,2.2,3.826h.022s-.132-2.947-.132-4.683v-4.99h3.285V40.027H69.864l-3.549-5.759c-.837-1.384-2.27-4.023-2.27-4.023h-.022s.154,2.484.154,4.88v4.9H60.869V25.078h3.373Z" transform="translate(-60.869 -25.078)" fill="#1a1818"/>
      <path id="Контур_6583" data-name="Контур 6583" d="M78.891,28.679c3.307,0,5.579,2,5.579,5.539S82.2,39.67,78.891,39.67s-5.555-1.913-5.555-5.452S75.584,28.679,78.891,28.679Zm0,8.552c1.478,0,2.316-1.143,2.316-3.056,0-1.956-.816-3.077-2.316-3.077S76.6,32.239,76.6,34.175,77.414,37.231,78.891,37.231Z" transform="translate(-58.679 -24.458)" fill="#1a1818"/>
      <path id="Контур_6584" data-name="Контур 6584" d="M87.758,28.94v1.429A3.2,3.2,0,0,1,90.713,28.7a2.121,2.121,0,0,1,.375.022V31.8a4.672,4.672,0,0,0-1.036-.131,1.928,1.928,0,0,0-2.1,1.474,5.376,5.376,0,0,0-.154,1.406V39.4H84.584V28.94Z" transform="translate(-56.703 -24.455)" fill="#1a1818"/>
      <path id="Контур_6585" data-name="Контур 6585" d="M98.456,32.13a4.309,4.309,0,0,0-2.844-1.143c-.728,0-1.367.241-1.367.769,0,.55.486.7,1.566.923l1.653.353c1.7.352,3.241,1.033,3.241,3.034,0,2.439-2.139,3.6-4.631,3.6a6.755,6.755,0,0,1-5.379-2.353l2.028-1.626a4.211,4.211,0,0,0,3.351,1.6c1.082,0,1.632-.352,1.632-.924,0-.593-.638-.7-1.344-.836l-1.654-.329a5.519,5.519,0,0,1-2.6-1.1,2.557,2.557,0,0,1-.9-2.044c0-2.484,2.4-3.384,4.475-3.384a6.535,6.535,0,0,1,4.586,1.736Z" transform="translate(-55.63 -24.458)" fill="#1a1818"/>
      <path id="Контур_6586" data-name="Контур 6586" d="M104.15,25.078v7.935l3.352-3.45h4.255l-4.277,4.067,4.586,6.4H108.1l-2.932-4.265-1.015.946v3.319h-3.218V25.078Z" transform="translate(-53.831 -25.078)" fill="#1a1818"/>
      <path id="Контур_6587" data-name="Контур 6587" d="M119.632,28v2.946h6.108v2.968h-6.108v6.111H116.3V25.078h9.723V28Z" transform="translate(-51.131 -25.078)" fill="#1a1818"/>
      <path id="Контур_6588" data-name="Контур 6588" d="M131.083,28.679c3.306,0,5.577,2,5.577,5.539s-2.271,5.452-5.577,5.452-5.556-1.913-5.556-5.452S127.776,28.679,131.083,28.679Zm0,8.552c1.477,0,2.315-1.143,2.315-3.056,0-1.956-.816-3.077-2.315-3.077s-2.293,1.142-2.293,3.077S129.607,37.231,131.083,37.231Z" transform="translate(-49.511 -24.458)" fill="#1a1818"/>
      <path id="Контур_6589" data-name="Контур 6589" d="M139.994,40.027h-3.219V25.078h3.219Z" transform="translate(-47.535 -25.078)" fill="#1a1818"/>
      <path id="Контур_6590" data-name="Контур 6590" d="M145.225,25.078v7.935l3.351-3.45h4.255l-4.276,4.067,4.586,6.4h-3.968l-2.933-4.265-1.015.946v3.319h-3.22V25.078Z" transform="translate(-46.616 -25.078)" fill="#1a1818"/>
      <path id="Контур_6591" data-name="Контур 6591" d="M162.17,37.186a5.923,5.923,0,0,1-5.026,2.484,5.183,5.183,0,0,1-5.447-5.539,5.167,5.167,0,0,1,5.38-5.452c3.464,0,5.227,2.484,5.227,5.671a5.99,5.99,0,0,1-.023.66h-7.474a2.334,2.334,0,0,0,2.535,2.131,2.943,2.943,0,0,0,2.6-1.45Zm-7.363-4.242h4.388a2.012,2.012,0,0,0-2.137-2.044A2.192,2.192,0,0,0,154.807,32.944Z" transform="translate(-44.914 -24.458)" fill="#1a1818"/>
      <path id="Контур_6592" data-name="Контур 6592" d="M172.469,40.027h-3.22V34.751c0-1.606-.066-2.728-1.653-2.728-1.345,0-1.917,1.056-1.917,2.485v5.518h-3.219V25.078h3.219v5.716a3.578,3.578,0,0,1,3.107-1.495,3.541,3.541,0,0,1,2.757,1.01c.662.748.926,1.474.926,3.782Z" transform="translate(-43.023 -25.078)" fill="#1a1818"/>
      <path id="Контур_6593" data-name="Контур 6593" d="M176.814,29.563V40.575a4.961,4.961,0,0,1-.287,1.892c-.463,1.142-1.477,1.561-3.44,1.561-.638,0-.969-.023-1.256-.045V41.478h.2c.949,0,1.522-.154,1.522-1.386V29.563Zm0-1.342h-3.262V25.078h3.262Z" transform="translate(-41.377 -25.078)" fill="#1a1818"/>
      <path id="Контур_6594" data-name="Контур 6594" d="M188.229,37.186A5.929,5.929,0,0,1,183.2,39.67a5.181,5.181,0,0,1-5.444-5.539,5.165,5.165,0,0,1,5.38-5.452c3.46,0,5.223,2.484,5.223,5.671,0,.22,0,.462-.02.66h-7.475a2.336,2.336,0,0,0,2.536,2.131,2.946,2.946,0,0,0,2.6-1.45Zm-7.364-4.242h4.386a2.011,2.011,0,0,0-2.139-2.044A2.192,2.192,0,0,0,180.864,32.944Z" transform="translate(-40.336 -24.458)" fill="#1a1818"/>
      <path id="Контур_6595" data-name="Контур 6595" d="M191.735,40.027h-3.219V25.078h3.219Z" transform="translate(-38.446 -25.078)" fill="#1a1818"/>
      <path id="Контур_6596" data-name="Контур 6596" d="M196.872,38.461v4.9h-3.22V28.943h3.22v.966a4.242,4.242,0,0,1,3.065-1.23c3,0,4.893,2.2,4.893,5.5,0,3.186-1.961,5.5-4.893,5.5A3.958,3.958,0,0,1,196.872,38.461Zm2.314-1.231c1.5,0,2.382-1.189,2.382-3.056,0-1.912-.816-3.077-2.382-3.077-1.432,0-2.4,1.252-2.4,3.077S197.754,37.231,199.186,37.231Z" transform="translate(-37.544 -24.458)" fill="#1a1818"/>
    </g>
  </g>
</svg>
