<svg id="vipps-rgb-orange-neg" xmlns="http://www.w3.org/2000/svg" width="64" height="26" viewBox="0 0 64 26">
  <rect id="Прямоугольник_1887" data-name="Прямоугольник 1887" width="64" height="26" fill="#ff5b24"/>
  <path id="Контур_8345" data-name="Контур 8345" d="M24.365,22l2.011,5.874L28.347,22h2.326L27.2,30.712H25.469L22,22Z" transform="translate(-13.327 -13.356)" fill="#fff"/>
  <path id="Контур_8346" data-name="Контур 8346" d="M141.4,28.347l5.874-2.011L141.4,24.365V22l8.712,3.469V27.2L141.4,30.673Z" transform="translate(-86.112 -13.356)" fill="none"/>
  <path id="Контур_8347" data-name="Контур 8347" d="M24.365,44l2.011,5.874L28.347,44h2.326L27.2,52.712H25.469L22,44Z" transform="translate(-13.327 -26.712)" fill="none"/>
  <path id="Контур_8348" data-name="Контур 8348" d="M28.347,8.712,26.336,2.838,24.365,8.712H22L25.509,0h1.735l3.469,8.712Z" transform="translate(-13.327)" fill="none"/>
  <path id="Контур_8349" data-name="Контур 8349" d="M8.712,24.365,2.838,26.376l5.874,2.011v2.326L0,27.243V25.509L8.712,22Z" transform="translate(0 -13.356)" fill="none"/>
  <path id="Контур_8350" data-name="Контур 8350" d="M49.258,31.332A3.628,3.628,0,0,0,52.333,29.6c.434-.552.986-.67,1.38-.355a1,1,0,0,1,0,1.459,5.47,5.47,0,0,1-4.455,2.4,5.923,5.923,0,0,1-5.007-3.036.926.926,0,0,1,.118-1.34.953.953,0,0,1,1.34.394A4.315,4.315,0,0,0,49.258,31.332Zm2.72-4.849A1.183,1.183,0,1,1,50.8,25.3,1.186,1.186,0,0,1,51.979,26.483Z" transform="translate(-26.815 -15.358)" fill="#fff"/>
  <path id="Контур_8351" data-name="Контур 8351" d="M74.968,21.637v1.183A3.309,3.309,0,0,1,77.807,21.4c1.7,0,3.666,1.419,3.666,4.455,0,3.193-1.892,4.731-3.863,4.731a3.155,3.155,0,0,1-2.681-1.38v4.179H72.8V21.637Zm0,4.336c0,1.774,1.025,2.72,2.168,2.72,1.1,0,2.208-.867,2.208-2.72,0-1.813-1.1-2.681-2.208-2.681S74.968,24.12,74.968,25.973Z" transform="translate(-44.335 -12.998)" fill="#fff"/>
  <path id="Контур_8352" data-name="Контур 8352" d="M100.968,21.637v1.183a3.309,3.309,0,0,1,2.838-1.419c1.7,0,3.666,1.419,3.666,4.455,0,3.193-1.892,4.731-3.863,4.731a3.155,3.155,0,0,1-2.681-1.38v4.179H98.8V21.637Zm0,4.336c0,1.774,1.025,2.72,2.168,2.72,1.1,0,2.208-.867,2.208-2.72,0-1.813-1.1-2.681-2.208-2.681C101.993,23.292,100.968,24.12,100.968,25.973Z" transform="translate(-60.169 -12.998)" fill="#fff"/>
  <path id="Контур_8353" data-name="Контур 8353" d="M126.727,21.4a3.42,3.42,0,0,1,3.587,2.878l-1.932.315c-.039-1.025-.67-1.38-1.616-1.38-.71,0-1.262.315-1.262.828,0,.394.276.788,1.1.946l1.459.276a2.464,2.464,0,0,1,2.208,2.484c0,1.892-1.7,2.838-3.311,2.838a3.6,3.6,0,0,1-3.863-3l1.932-.315c.118,1.1.788,1.5,1.892,1.5.828,0,1.38-.315,1.38-.828,0-.473-.276-.828-1.183-.986l-1.34-.237a2.573,2.573,0,0,1-2.287-2.523A2.992,2.992,0,0,1,126.727,21.4Z" transform="translate(-75.027 -12.993)" fill="#fff"/>
</svg>
